<?xml version="1.0" encoding="UTF-8"?>
<!-- Created with Inkscape (http://www.inkscape.org/) -->
<svg width="512" height="512" version="1.1" viewBox="0 0 135.47 135.47" xmlns="http://www.w3.org/2000/svg">
 <g display="none">
  <rect x="3.3814e-7" width="135.47" height="135.47" fill="#4d255b"/>
 </g>
 <g transform="translate(.20013 9.2061)">
  <g transform="matrix(1.131 0 0 1.1432 -8.5482 -9.8379)" fill="#ffe508">
   <g transform="matrix(1.4515 0 0 .94209 -15.226 -4.4466)">
    <path x="17.813271" y="45.831707" width="39.022999" height="58.235237" d="m17.813 45.832h39.023v58.235h-39.023zm78.048 0h-39.023v58.235h39.023z" stroke="#000" stroke-linecap="round" stroke-width="4.2333"/>
    <g stroke-linecap="square">
     <path x="22.255384" y="45.070404" width="30.138355" height="2.7203112" d="m22.255 45.07h30.138v2.7203h-30.138zm69.164 0h-30.138v2.7203h30.138z" stroke="#ffe508" stroke-width="4.7151"/>
     <path x="22.395376" y="92.641602" width="29.858366" height="9.2448006" d="m22.395 92.642h29.858v9.2448h-29.858zm68.884 0h-29.858v9.2448h29.858z" stroke="#ffe508" stroke-width="4.9951"/>
     <path d="m18.199 104.14c26.417 0.20013 38.625 19.613 38.625 19.613l0.01312-20.081 0.01312 20.081s12.208-19.413 38.625-19.613" stroke="#000" stroke-width="4.2333"/>
     <path d="m56.138 42.91s-12.145-21.376-38.427-21.596l0.1991 21.816m39.627-0.22037s12.145-21.376 38.427-21.596l-0.1991 21.816" stroke="#000" stroke-width="4.2333"/>
    </g>
   </g>
   <g transform="matrix(1.4515 0 0 .94209 -15.226 -10.981)">
    <path x="17.813271" y="45.831707" width="39.022999" height="58.235237" d="m17.813 45.832h39.023v58.235h-39.023zm78.048 0h-39.023v58.235h39.023z" stroke="#000" stroke-linecap="round" stroke-width="4.2333"/>
    <g stroke-linecap="square">
     <path x="22.255384" y="45.070404" width="30.138355" height="2.7203112" d="m22.255 45.07h30.138v2.7203h-30.138zm69.164 0h-30.138v2.7203h30.138z" stroke="#ffe508" stroke-width="4.7151"/>
     <path x="22.395376" y="92.641602" width="29.858366" height="9.2448006" d="m22.395 92.642h29.858v9.2448h-29.858zm68.884 0h-29.858v9.2448h29.858z" stroke="#ffe508" stroke-width="4.9951"/>
     <path d="m18.199 104.14c26.417 0.20013 38.625 19.613 38.625 19.613l0.01312-20.081 0.01312 20.081s12.208-19.413 38.625-19.613" stroke="#000" stroke-width="4.2333"/>
     <path d="m56.138 42.91s-12.145-21.376-38.427-21.596l0.1991 21.816m39.627-0.22037s12.145-21.376 38.427-21.596l-0.1991 21.816" stroke="#000" stroke-width="4.2333"/>
    </g>
   </g>
   <g transform="matrix(1.4515 0 0 .94209 -15.226 -17.515)">
    <path x="17.813271" y="45.831707" width="39.022999" height="58.235237" d="m17.813 45.832h39.023v58.235h-39.023zm78.048 0h-39.023v58.235h39.023z" stroke="#000" stroke-linecap="round" stroke-width="4.2333"/>
    <g stroke-linecap="square">
     <path x="22.255384" y="45.070404" width="30.138355" height="2.7203112" d="m22.255 45.07h30.138v2.7203h-30.138zm69.164 0h-30.138v2.7203h30.138z" stroke="#ffe508" stroke-width="4.7151"/>
     <path x="22.395376" y="92.641602" width="29.858366" height="9.2448006" d="m22.395 92.642h29.858v9.2448h-29.858zm68.884 0h-29.858v9.2448h29.858z" stroke="#ffe508" stroke-width="4.9951"/>
     <path d="m18.199 104.14c26.417 0.20013 38.625 19.613 38.625 19.613l0.01312-20.081 0.01312 20.081s12.208-19.413 38.625-19.613" stroke="#000" stroke-width="4.2333"/>
     <path d="m56.138 42.91s-12.145-21.376-38.427-21.596l0.1991 21.816m39.627-0.22037s12.145-21.376 38.427-21.596l-0.1991 21.816" stroke="#000" stroke-width="4.2333"/>
    </g>
   </g>
  </g>
 </g>
</svg>
